<?xml version="1.0" encoding="UTF-8"?><svg id="_레이어_2" xmlns="http://www.w3.org/2000/svg" viewBox="0 0 19.57 27.52"><defs><style>.cls-1{fill:#fff;}.cls-2{fill:#083d07;}</style></defs><g id="_레이어_1-2"><path class="cls-2" d="m15.84,2C12.3-.67,7.27-.67,3.73,2-1.64,6.05-.73,13.43,3.41,17.58c2.76,2.76,4.62,6.87,5.59,9.4.27.71,1.29.71,1.56,0,.97-2.54,2.83-6.64,5.59-9.4,4.15-4.15,5.05-11.53-.32-15.58Z"/><polygon class="cls-1" points="13.06 6.09 12.2 6.81 7.37 10.88 7.37 7.93 10.87 4.98 9.79 4.07 7.37 6.11 7.37 6.11 5.95 7.3 5.95 12.93 6.51 13.4 7.37 12.68 12.2 8.6 12.2 11.55 8.7 14.5 9.78 15.42 12.2 13.38 13.62 12.18 13.62 6.56 13.06 6.09"/></g></svg>