<?xml version="1.0" encoding="UTF-8"?><svg id="_레이어_2" xmlns="http://www.w3.org/2000/svg" viewBox="0 0 19.27 23.32"><defs><style>.cls-1{fill:none;stroke:#000;stroke-miterlimit:10;}</style></defs><g id="_레이어_1-2"><path class="cls-1" d="m18.77,16.53V6.79c0-.53-.27-1.02-.72-1.3L10.45.73c-.5-.31-1.13-.31-1.63,0L1.22,5.49c-.45.28-.72.77-.72,1.3v9.74c0,.53.27,1.02.72,1.3l7.6,4.76c.5.31,1.13.31,1.63,0l7.6-4.76c.45-.28.72-.77.72-1.3Z"/><polygon points="13.71 7.01 12.62 7.92 6.46 13.11 6.46 9.36 10.92 5.6 9.54 4.43 6.46 7.03 6.46 7.03 4.65 8.55 4.65 15.72 5.37 16.32 6.46 15.4 12.62 10.21 12.62 13.97 8.16 17.73 9.54 18.89 12.62 16.29 14.42 14.77 14.42 7.61 13.71 7.01"/></g></svg>