<?xml version="1.0" encoding="UTF-8"?><svg id="_레이어_2" xmlns="http://www.w3.org/2000/svg" viewBox="0 0 26.27 31.5"><defs><style>.cls-1{fill:#fff;}.cls-2{fill:#083d07;}</style></defs><g id="_레이어_1-2"><path class="cls-2" d="m26.27,21.83v-12.17c0-1.33-.69-2.57-1.81-3.28L15.19.59c-1.25-.79-2.85-.79-4.1,0L1.81,6.39c-1.13.71-1.81,1.94-1.81,3.28v12.17c0,1.33.69,2.57,1.81,3.28l9.27,5.8c1.25.79,2.85.79,4.1,0l9.27-5.8c1.13-.71,1.81-1.94,1.81-3.28Z"/><polygon class="cls-1" points="18.99 9.06 17.43 10.38 8.57 17.84 8.57 12.44 14.98 7.03 13 5.36 8.57 9.09 8.57 9.09 5.97 11.28 5.97 21.58 7 22.44 8.57 21.12 17.43 13.66 17.43 19.06 11.01 24.47 12.99 26.14 17.43 22.41 20.02 20.22 20.02 9.92 18.99 9.06"/></g></svg>