<?xml version="1.0" encoding="UTF-8"?><svg id="_레이어_2" xmlns="http://www.w3.org/2000/svg" viewBox="0 0 14.63 20.22"><defs><style>.cls-1{fill:none;stroke:#000;stroke-linecap:round;stroke-miterlimit:10;}</style></defs><g id="_레이어_1-2"><path class="cls-1" d="m11.53,1.9c-2.47-1.86-5.98-1.86-8.46,0C.14,4.11-.2,8.12,1.61,11.17c.86,1.45,2.2,2.56,3.11,4,.83,1.32,1.49,2.73,2.05,4.18.19.5.9.5,1.09,0,.8-2.1,1.81-4.17,3.28-5.89,1.2-1.4,2.3-2.61,2.77-4.46.67-2.65-.16-5.43-2.37-7.1Z"/><polygon points="9.59 4.75 8.99 5.26 5.62 8.1 5.62 6.04 8.06 3.98 7.31 3.34 5.62 4.77 5.62 4.77 4.63 5.6 4.63 9.53 5.02 9.86 5.62 9.35 8.99 6.51 8.99 8.57 6.55 10.63 7.3 11.27 8.99 9.84 9.98 9.01 9.98 5.08 9.59 4.75"/></g></svg>