<?xml version="1.0" encoding="UTF-8"?><svg id="_레이어_2" xmlns="http://www.w3.org/2000/svg" viewBox="0 0 15.09 8.76"><g id="_레이어_1-2"><path d="m3.08,7.02c.09-.15.15-.33.19-.55h1.2c-.03.32-.09.62-.18.9-.1.28-.22.52-.38.73-.15.21-.34.37-.55.49-.21.12-.44.18-.68.18h-.81c-.26,0-.5-.07-.73-.2s-.43-.32-.6-.55c-.17-.23-.3-.5-.4-.81s-.15-.64-.15-.99v-3.67c0-.35.05-.68.15-.99.1-.31.23-.58.4-.81s.37-.41.6-.55.47-.2.73-.2h.81c.25,0,.48.06.68.18.21.12.39.28.54.49.15.21.28.46.38.74.1.28.16.59.18.92h-1.19c-.04-.23-.1-.42-.19-.57-.09-.15-.23-.23-.41-.23h-.8c-.22,0-.4.11-.53.32s-.19.48-.19.79v3.49c0,.31.06.57.19.79.13.22.3.32.53.32h.8c.18,0,.32-.07.4-.22Z"/><path d="m6.5,7.28h3.22v1.48h-4.44V0h4.44v1.48h-3.22v2.16h3.22v1.46h-3.22v2.17Z"/><path d="m13.21,0c.26,0,.5.07.73.2s.43.32.6.55c.17.23.3.5.4.81.1.31.15.64.15.99v3.67c0,.35-.05.68-.15.99s-.23.58-.4.81-.37.41-.6.55-.47.2-.73.2h-.74c-.26,0-.5-.07-.73-.2s-.43-.32-.6-.55-.3-.5-.4-.81-.15-.64-.15-.99v-3.67c0-.35.05-.68.15-.99.1-.31.23-.58.4-.81.17-.23.37-.41.6-.55s.47-.2.73-.2h.74Zm.71,2.64c0-.31-.06-.57-.19-.79s-.31-.32-.53-.32h-.72c-.22,0-.4.11-.53.32-.13.22-.19.48-.19.79v3.49c0,.31.06.57.19.79.13.22.31.32.53.32h.72c.22,0,.4-.11.53-.32.13-.22.19-.48.19-.79v-3.49Z"/></g></svg>