<?xml version="1.0" encoding="UTF-8"?><svg id="_레이어_2" xmlns="http://www.w3.org/2000/svg" viewBox="0 0 14.19 13.43"><defs><style>.cls-1,.cls-2,.cls-3{fill:none;stroke:#000;stroke-linecap:round;stroke-miterlimit:10;}.cls-2{stroke-width:.8px;}.cls-3{stroke-width:.5px;}</style></defs><g id="_레이어_1-2"><path class="cls-1" d="m11.9,12.5v-2.24c0-.37.19-.74.53-.9.5-.23,1.18-.85,1.26-2.51.08-1.55-.89-3.01-2.41-3.3-.41-.08-.81-.07-1.19,0,0-.02,0-.04,0-.06,0-1.66-1.34-3-3-3s-3,1.34-3,3c0,.02,0,.04,0,.06-.38-.08-.78-.08-1.19,0-1.52.29-2.49,1.75-2.41,3.3.08,1.65.76,2.27,1.26,2.51.34.16.53.52.53.9v2.24"/><path class="cls-1" d="m11.9,12.5v-2.24c0-.37.19-.74.53-.9.5-.23,1.18-.85,1.26-2.51.08-1.55-.89-3.01-2.41-3.3-.41-.08-.81-.07-1.19,0,0-.02,0-.04,0-.06,0-1.66-1.34-3-3-3s-3,1.34-3,3c0,.02,0,.04,0,.06-.38-.08-.78-.08-1.19,0-1.52.29-2.49,1.75-2.41,3.3.08,1.65.76,2.27,1.26,2.51.34.16.53.52.53.9v2.24"/><path class="cls-2" d="m3.5,13.03s3-1.2,7.2,0"/><line class="cls-3" x1="4.1" y1="8.3" x2="4.1" y2="10.7"/><line class="cls-3" x1="7.1" y1="7.7" x2="7.1" y2="10.1"/><line class="cls-3" x1="10.1" y1="8.3" x2="10.1" y2="10.7"/></g></svg>